<svg width="46" height="42" viewBox="0 0 46 42" fill="none" xmlns="http://www.w3.org/2000/svg">
<path d="M41.6667 29.1667V4.16667H4.16667V29.1667H41.6667ZM41.6667 0C42.7717 0 43.8315 0.438987 44.6129 1.22039C45.3943 2.00179 45.8333 3.0616 45.8333 4.16667V29.1667C45.8333 30.2717 45.3943 31.3315 44.6129 32.1129C43.8315 32.8943 42.7717 33.3333 41.6667 33.3333H27.0833V37.5H31.25V41.6667H14.5833V37.5H18.75V33.3333H4.16667C3.0616 33.3333 2.00179 32.8943 1.22039 32.1129C0.438987 31.3315 0 30.2717 0 29.1667V4.16667C0 1.85417 1.85417 0 4.16667 0H41.6667ZM8.33333 8.33333H27.0833V18.75H8.33333V8.33333ZM29.1667 8.33333H37.5V12.5H29.1667V8.33333ZM37.5 14.5833V25H29.1667V14.5833H37.5ZM8.33333 20.8333H16.6667V25H8.33333V20.8333ZM18.75 20.8333H27.0833V25H18.75V20.8333Z" fill="white"/>
</svg>
