<svg width="100" height="100" viewBox="0 0 100 100" fill="none" xmlns="http://www.w3.org/2000/svg">
<circle cx="50" cy="50" r="50" fill="url(#paint0_linear_344_337)"/>
<g clip-path="url(#clip0_344_337)">
<path d="M71.4334 54.9C72.5299 55.0349 73.586 55.3983 74.5334 55.9667H74.6167C75.6009 51.3139 75.2485 46.4776 73.6001 42.0167C73.5383 41.7947 73.4312 41.5879 73.2855 41.4094C73.1399 41.2309 72.9587 41.0845 72.7536 40.9796C72.5485 40.8746 72.3239 40.8133 72.0939 40.7995C71.8639 40.7858 71.6335 40.8198 71.4174 40.8996C71.2012 40.9793 71.0039 41.1031 70.838 41.2629C70.6721 41.4228 70.5411 41.6153 70.4533 41.8283C70.3655 42.0414 70.3229 42.2703 70.3281 42.5007C70.3332 42.731 70.3861 42.9578 70.4834 43.1667C71.8608 46.9187 72.1892 50.9753 71.4334 54.9V54.9ZM63.8834 67.6333C60.9792 70.0561 57.4914 71.6765 53.7667 72.3333C53.5478 72.3519 53.3348 72.4135 53.1397 72.5144C52.9446 72.6154 52.7713 72.7537 52.6297 72.9217C52.4881 73.0896 52.3809 73.2838 52.3144 73.4931C52.2478 73.7024 52.2231 73.9228 52.2417 74.1417C52.2603 74.3605 52.3219 74.5736 52.4228 74.7687C52.5237 74.9638 52.6621 75.1371 52.83 75.2787C52.998 75.4203 53.1921 75.5274 53.4015 75.594C53.6108 75.6606 53.8312 75.6853 54.0501 75.6667H54.3501C58.7894 74.8836 62.9384 72.927 66.3667 70V69.8833C65.3863 69.3212 64.5392 68.5537 63.8834 67.6333V67.6333ZM46.0334 72.2333C43.5125 71.7603 41.0931 70.8523 38.8834 69.55C37.9385 68.9932 37.031 68.3752 36.1667 67.7C35.5313 68.6334 34.7011 69.4181 33.7334 70C34.8156 70.9131 35.9693 71.7379 37.1834 72.4667C39.729 73.9662 42.5143 75.0149 45.4167 75.5667H45.7334C46.1754 75.6064 46.6151 75.469 46.9558 75.1846C47.2965 74.9001 47.5103 74.492 47.5501 74.05C47.5898 73.608 47.4524 73.1682 47.168 72.8276C46.8835 72.4869 46.4754 72.2731 46.0334 72.2333V72.2333ZM27.6001 55.25C27.9334 55.25 28.2667 55.2 28.6001 55.1C27.8056 51.1701 28.1171 47.0967 29.5001 43.3333C29.6526 42.9178 29.6337 42.4588 29.4478 42.0571C29.2618 41.6555 28.9239 41.3442 28.5084 41.1917C28.0929 41.0392 27.6338 41.058 27.2322 41.2439C26.8305 41.4299 26.5192 41.7678 26.3667 42.1833C24.7159 46.6805 24.3919 51.5573 25.4334 56.2333C26.1022 55.7987 26.8326 55.4672 27.6001 55.25Z" fill="url(#paint1_linear_344_337)"/>
<path d="M73.1667 58.3333C72.5715 57.9546 71.907 57.6977 71.2118 57.5775C70.5166 57.4574 69.8045 57.4763 69.1167 57.6333C68.2463 57.8654 67.4455 58.3059 66.7834 58.9167L60.3334 55.1833C61.3492 52.6736 61.4428 49.8852 60.5977 47.313C59.7525 44.7408 58.0231 42.5514 55.7167 41.1333L55.5334 41.0167C54.2873 40.3135 52.9183 39.8553 51.5 39.6667V33.3333C52.8274 32.9344 53.9497 32.0389 54.6334 30.8333C55.3696 29.5869 55.5848 28.1005 55.2323 26.6965C54.8797 25.2924 53.9878 24.084 52.75 23.3333C52.147 22.9805 51.4797 22.7517 50.7871 22.6601C50.0945 22.5685 49.3907 22.6161 48.7167 22.8C48.0218 22.9771 47.3692 23.2909 46.7969 23.723C46.2246 24.1551 45.744 24.6969 45.3834 25.3167C44.6679 26.557 44.4643 28.0276 44.816 29.4157C45.1677 30.8037 46.0469 32 47.2667 32.75C47.6492 32.9999 48.0642 33.1962 48.5 33.3333V39.6667C46.8211 39.8958 45.2174 40.508 43.8129 41.4559C42.4084 42.4038 41.2406 43.6621 40.4 45.1333C39.5302 46.6371 39.0151 48.3195 38.8938 50.0524C38.7725 51.7853 39.0482 53.5231 39.7 55.1333L33.0334 58.95C32.7996 58.7255 32.5488 58.5193 32.2834 58.3333C31.6731 57.9861 31.0002 57.7628 30.3034 57.6763C29.6066 57.5897 28.8996 57.6416 28.2229 57.829C27.5462 58.0164 26.9131 58.3355 26.3601 58.7681C25.807 59.2008 25.3448 59.7383 25 60.35C24.2801 61.5844 24.0688 63.0506 24.411 64.438C24.7532 65.8255 25.622 67.0253 26.8334 67.7833C27.6637 68.2833 28.6142 68.5482 29.5834 68.55C30.0222 68.5531 30.4595 68.4971 30.8834 68.3833C32.269 68.0259 33.4569 67.1347 34.1876 65.9043C34.9184 64.6739 35.1325 63.2044 34.7834 61.8167V61.5333L41.25 57.8C42.1168 58.9348 43.1845 59.9008 44.4 60.65C46.7301 62.1192 49.5329 62.644 52.2367 62.1175C54.9405 61.591 57.3415 60.0528 58.95 57.8167L65.3334 61.5C65.0325 62.6367 65.105 63.84 65.5401 64.9323C65.9752 66.0247 66.75 66.9482 67.75 67.5667C68.9614 68.2774 70.4054 68.4783 71.7647 68.1252C73.1241 67.7721 74.2877 66.8938 75 65.6833C75.6946 64.4567 75.8916 63.0101 75.5504 61.6424C75.2093 60.2747 74.356 59.0901 73.1667 58.3333ZM33.4167 36.6667C35.8044 33.8461 38.8739 31.6831 42.3334 30.3833C41.9985 29.2658 41.9019 28.0905 42.05 26.9333C37.7162 28.3823 33.8568 30.9802 30.8834 34.45C30.5894 34.7859 30.441 35.2249 30.4707 35.6703C30.5003 36.1157 30.7058 36.531 31.0417 36.825C31.3776 37.1189 31.8166 37.2674 32.262 37.2377C32.7074 37.208 33.1227 37.0026 33.4167 36.6667Z" fill="url(#paint2_linear_344_337)"/>
<path d="M61.1165 32.05C63.1682 33.281 65.0037 34.8407 66.5498 36.6667C66.6921 36.833 66.8657 36.9697 67.0608 37.0689C67.2559 37.1682 67.4687 37.228 67.6869 37.245C67.9051 37.2621 68.1245 37.2359 68.3326 37.1682C68.5408 37.1004 68.7335 36.9923 68.8998 36.85C69.0662 36.7077 69.2029 36.5341 69.3021 36.339C69.4013 36.1439 69.4612 35.9312 69.4782 35.713C69.4952 35.4948 69.4691 35.2753 69.4013 35.0672C69.3335 34.8591 69.2254 34.6664 69.0832 34.5C67.3032 32.3883 65.1856 30.5861 62.8165 29.1667C61.2627 28.2632 59.6209 27.5205 57.9165 26.95C58.0838 28.099 57.9985 29.2707 57.6665 30.3833C58.86 30.8441 60.0138 31.4015 61.1165 32.05V32.05Z" fill="url(#paint3_linear_344_337)"/>
</g>
<defs>
<linearGradient id="paint0_linear_344_337" x1="50" y1="0" x2="50" y2="100" gradientUnits="userSpaceOnUse">
<stop stop-color="white"/>
<stop offset="0.703635" stop-color="#E8F5FE"/>
</linearGradient>
<linearGradient id="paint1_linear_344_337" x1="49.9989" y1="40.7965" x2="49.9989" y2="75.6727" gradientUnits="userSpaceOnUse">
<stop stop-color="#1F71BA"/>
<stop offset="1" stop-color="#743BB8"/>
</linearGradient>
<linearGradient id="paint2_linear_344_337" x1="49.9825" y1="22.6148" x2="49.9825" y2="68.5501" gradientUnits="userSpaceOnUse">
<stop stop-color="#1F71BA"/>
<stop offset="1" stop-color="#743BB8"/>
</linearGradient>
<linearGradient id="paint3_linear_344_337" x1="63.5749" y1="26.95" x2="63.5749" y2="37.2501" gradientUnits="userSpaceOnUse">
<stop stop-color="#1F71BA"/>
<stop offset="1" stop-color="#743BB8"/>
</linearGradient>
<clipPath id="clip0_344_337">
<rect width="60" height="60" fill="white" transform="translate(20 20)"/>
</clipPath>
</defs>
</svg>
