<svg width="506" height="217" viewBox="0 0 506 217" fill="none" xmlns="http://www.w3.org/2000/svg">
<path d="M130.141 3.00008C110.066 3.00008 83.2998 9.69173 83.2998 56.5333V110.067C83.2998 118.431 88.3587 123.564 96.6831 123.45H123.45C131.814 123.45 136.833 118.431 136.833 110.254V69.9166C136.833 61.552 131.814 56.5333 123.45 56.5333C116.758 56.5333 116.758 56.5333 116.758 49.8416V43.15C116.758 36.4583 123.45 29.7667 130.141 29.7667C136.833 29.7667 136.833 29.7131 136.833 22.8676V9.69173C136.833 3.00008 136.833 3.00008 130.141 3.00008ZM49.8415 3.00008C29.7666 3.00008 2.99997 9.69173 2.99997 56.5333V110.067C2.99997 118.431 8.06555 123.564 16.3833 123.45H43.1499C51.5144 123.45 56.5332 118.431 56.5332 110.254V69.9166C56.5332 61.552 51.5144 56.5333 43.1499 56.5333H38.1311C38.1311 41.4771 36.4582 29.7667 56.5332 29.7667V9.69173C56.5332 3.00008 56.5332 3.00008 49.8415 3.00008Z" stroke="#DFDDE2" stroke-opacity="0.5" stroke-width="6" stroke-linecap="round" stroke-linejoin="round"/>
<path d="M375.859 92.9342C395.934 92.9342 422.7 99.6258 422.7 146.467V200.001C422.7 208.365 417.641 213.498 409.317 213.384H382.55C374.186 213.384 369.167 208.365 369.167 200.188V159.851C369.167 151.486 374.186 146.467 382.55 146.467C389.242 146.467 389.242 146.467 389.242 139.776V133.084C389.242 126.392 382.55 119.701 375.859 119.701C369.167 119.701 369.167 119.647 369.167 112.802V99.6258C369.167 92.9342 369.167 92.9342 375.859 92.9342ZM456.158 92.9342C476.233 92.9342 503 99.6258 503 146.467V200.001C503 208.365 497.934 213.498 489.617 213.384H462.85C454.486 213.384 449.467 208.365 449.467 200.188V159.851C449.467 151.486 454.486 146.467 462.85 146.467H467.869C467.869 131.411 469.542 119.701 449.467 119.701V99.6258C449.467 92.9342 449.467 92.9342 456.158 92.9342Z" stroke="#DFDDE2" stroke-opacity="0.5" stroke-width="6" stroke-linecap="round" stroke-linejoin="round"/>
</svg>
