<svg width="50" height="45" viewBox="0 0 50 45" fill="none" xmlns="http://www.w3.org/2000/svg">
<path d="M31.885 17.5C34.3 17.5 36.26 19.46 36.26 21.875V33.7475C36.26 36.7318 35.0745 39.594 32.9642 41.7042C30.854 43.8145 27.9918 45 25.0075 45C22.0232 45 19.161 43.8145 17.0508 41.7042C14.9405 39.594 13.755 36.7318 13.755 33.7475V21.875C13.755 19.46 15.7125 17.5 18.13 17.5H31.885V17.5ZM12.8275 17.5C11.927 18.5836 11.3854 19.9202 11.2775 21.325L11.2525 21.875V33.7475C11.2525 35.865 11.7325 37.87 12.5875 39.66C11.1057 40.0564 9.55258 40.1067 8.04824 39.807C6.54389 39.5073 5.12862 38.8657 3.91187 37.9317C2.69511 36.9977 1.70947 35.7963 1.03116 34.4205C0.352844 33.0448 3.07494e-05 31.5314 0 29.9975V21.875C4.10115e-05 20.777 0.412927 19.7192 1.1567 18.9115C1.90047 18.1038 2.92075 17.6053 4.015 17.515L4.375 17.5H12.8275V17.5ZM37.1875 17.5H45.625C48.04 17.5 50 19.46 50 21.875V30C50.0003 31.5329 49.6483 33.0454 48.971 34.4206C48.2937 35.7957 47.3093 36.9968 46.0939 37.9309C44.8785 38.8651 43.4646 39.5073 41.9615 39.808C40.4584 40.1086 38.9062 40.0597 37.425 39.665C38.175 38.095 38.635 36.365 38.7375 34.535L38.76 33.7475V21.875C38.76 20.2125 38.17 18.6875 37.185 17.5H37.1875ZM25 0C26.9891 0 28.8968 0.790177 30.3033 2.1967C31.7098 3.60322 32.5 5.51088 32.5 7.5C32.5 9.48912 31.7098 11.3968 30.3033 12.8033C28.8968 14.2098 26.9891 15 25 15C23.0109 15 21.1032 14.2098 19.6967 12.8033C18.2902 11.3968 17.5 9.48912 17.5 7.5C17.5 5.51088 18.2902 3.60322 19.6967 2.1967C21.1032 0.790177 23.0109 0 25 0V0ZM41.25 2.5C42.9076 2.5 44.4973 3.15848 45.6694 4.33058C46.8415 5.50269 47.5 7.0924 47.5 8.75C47.5 10.4076 46.8415 11.9973 45.6694 13.1694C44.4973 14.3415 42.9076 15 41.25 15C39.5924 15 38.0027 14.3415 36.8306 13.1694C35.6585 11.9973 35 10.4076 35 8.75C35 7.0924 35.6585 5.50269 36.8306 4.33058C38.0027 3.15848 39.5924 2.5 41.25 2.5ZM8.75 2.5C10.4076 2.5 11.9973 3.15848 13.1694 4.33058C14.3415 5.50269 15 7.0924 15 8.75C15 10.4076 14.3415 11.9973 13.1694 13.1694C11.9973 14.3415 10.4076 15 8.75 15C7.0924 15 5.50269 14.3415 4.33058 13.1694C3.15848 11.9973 2.5 10.4076 2.5 8.75C2.5 7.0924 3.15848 5.50269 4.33058 4.33058C5.50269 3.15848 7.0924 2.5 8.75 2.5V2.5Z" fill="url(#paint0_linear_417_375)"/>
<defs>
<linearGradient id="paint0_linear_417_375" x1="-7" y1="23" x2="50" y2="23" gradientUnits="userSpaceOnUse">
<stop stop-color="#218BD5"/>
<stop offset="1" stop-color="#B855FE"/>
</linearGradient>
</defs>
</svg>
