<svg width="50" height="69" viewBox="0 0 50 69" fill="none" xmlns="http://www.w3.org/2000/svg">
<path d="M22.4138 16.3759C22.4138 15.69 22.6863 15.0321 23.1713 14.5471C23.6563 14.0621 24.3141 13.7897 25 13.7897C25.6859 13.7897 26.3437 14.0621 26.8287 14.5471C27.3137 15.0321 27.5862 15.69 27.5862 16.3759V21.5483C27.5862 22.2342 27.3137 22.892 26.8287 23.377C26.3437 23.862 25.6859 24.1345 25 24.1345C24.3141 24.1345 23.6563 23.862 23.1713 23.377C22.6863 22.892 22.4138 22.2342 22.4138 21.5483V16.3759ZM39.7586 21.431C39.2737 20.9467 38.6164 20.6747 37.931 20.6747C37.2457 20.6747 36.5884 20.9467 36.1034 21.431L32.4448 25.0862C32.1977 25.3247 32.0006 25.6099 31.8649 25.9254C31.7292 26.2409 31.6577 26.5802 31.6545 26.9236C31.6514 27.267 31.7167 27.6076 31.8465 27.9255C31.9764 28.2433 32.1683 28.5322 32.411 28.7751C32.6538 29.0181 32.9424 29.2102 33.2602 29.3404C33.578 29.4706 33.9185 29.5362 34.2619 29.5334C34.6053 29.5306 34.9447 29.4594 35.2603 29.324C35.5758 29.1886 35.8613 28.9917 36.1 28.7448L39.7586 25.0897C40.2429 24.6047 40.515 23.9474 40.515 23.2621C40.515 22.5767 40.2429 21.9194 39.7586 21.4345V21.431ZM13.8966 21.431C13.4063 20.9742 12.7579 20.7255 12.0879 20.7373C11.4179 20.7491 10.7786 21.0206 10.3048 21.4944C9.83091 21.9682 9.55949 22.6075 9.54767 23.2775C9.53585 23.9475 9.78455 24.596 10.2414 25.0862L13.8966 28.7448C14.135 28.9919 14.4203 29.1891 14.7357 29.3248C15.0512 29.4605 15.3905 29.532 15.7339 29.5351C16.0773 29.5383 16.4179 29.473 16.7358 29.3431C17.0537 29.2132 17.3425 29.0213 17.5855 28.7786C17.8284 28.5359 18.0206 28.2472 18.1508 27.9295C18.281 27.6117 18.3466 27.2712 18.3437 26.9278C18.3409 26.5844 18.2697 26.245 18.1343 25.9294C17.999 25.6138 17.8021 25.3283 17.5552 25.0897L13.9 21.4345L13.8966 21.431ZM25 0C31.6304 0 37.9893 2.63392 42.6777 7.32233C47.3661 12.0107 50 18.3696 50 25C50 32.2276 46.8966 38.8621 40.8172 44.8C40.5532 45.058 40.3474 45.3696 40.2138 45.7138L40.1034 46.069L36.2069 62.9483C35.835 64.5583 34.9588 66.0075 33.7059 67.0848C32.453 68.1622 30.8889 68.8114 29.2414 68.9379L28.6448 68.9621H21.3552C19.7029 68.9621 18.0938 68.4346 16.7622 67.4565C15.4305 66.4784 14.4459 65.1008 13.9517 63.5241L13.7966 62.9483L9.9 46.069C9.78947 45.5867 9.54294 45.1463 9.18965 44.8C3.39655 39.1448 0.303448 32.8586 0.0206898 26.0276L0 25L0.0137937 24.1724C0.229415 17.6895 2.95634 11.5441 7.61861 7.03436C12.2809 2.52457 18.5135 0.00344286 25 0.00344885V0ZM32.2931 56.8897H17.7034L18.8379 61.7862C18.9563 62.2955 19.2263 62.757 19.6123 63.1097C19.9983 63.4624 20.4821 63.6899 21 63.7621L21.3552 63.7897H28.6448C29.1685 63.7891 29.6796 63.6295 30.1106 63.3321C30.5416 63.0347 30.8722 62.6135 31.0586 62.1241L31.1621 61.7828L32.2931 56.8897ZM25 5.17241C19.8726 5.17223 14.9445 7.15833 11.2501 10.7138C7.55576 14.2693 5.38239 19.1178 5.18621 24.2414L5.17241 25L5.19655 25.9552C5.45862 31.3448 7.95517 36.369 12.8034 41.1C13.7138 41.9897 14.3897 43.0862 14.7724 44.2931L14.9414 44.9069L16.5103 51.7172H22.4138V30.169C22.4138 29.4831 22.6863 28.8253 23.1713 28.3402C23.6563 27.8552 24.3141 27.5828 25 27.5828C25.6859 27.5828 26.3437 27.8552 26.8287 28.3402C27.3137 28.8253 27.5862 29.4831 27.5862 30.169V51.7207H33.4862L35.0655 44.9069C35.35 43.6697 35.9337 42.5211 36.7655 41.5621L37.2034 41.1035C42.0448 36.369 44.5414 31.3517 44.8034 25.9586L44.8276 25.0034L44.8138 24.2448C44.6194 19.12 42.4467 14.2698 38.7522 10.7129C35.0576 7.1559 30.1285 5.16885 25 5.16897V5.17241Z" fill="white"/>
</svg>
