<svg width="50" height="46" viewBox="0 0 50 46" fill="none" xmlns="http://www.w3.org/2000/svg">
<path d="M45.4545 31.8182V4.54545H4.54545V31.8182H45.4545ZM45.4545 0C46.6601 0 47.8162 0.478895 48.6687 1.33133C49.5211 2.18377 50 3.33993 50 4.54545V31.8182C50 33.0237 49.5211 34.1799 48.6687 35.0323C47.8162 35.8847 46.6601 36.3636 45.4545 36.3636H29.5455V40.9091H34.0909V45.4545H15.9091V40.9091H20.4545V36.3636H4.54545C3.33992 36.3636 2.18377 35.8847 1.33133 35.0323C0.478895 34.1799 0 33.0237 0 31.8182V4.54545C0 2.02273 2.02273 0 4.54545 0H45.4545ZM9.09091 9.09091H29.5455V20.4545H9.09091V9.09091ZM31.8182 9.09091H40.9091V13.6364H31.8182V9.09091ZM40.9091 15.9091V27.2727H31.8182V15.9091H40.9091ZM9.09091 22.7273H18.1818V27.2727H9.09091V22.7273ZM20.4545 22.7273H29.5455V27.2727H20.4545V22.7273Z" fill="white"/>
</svg>
